<svg xmlns="http://www.w3.org/2000/svg" style="display: none;"><symbol id="coding" viewBox="0 0 512 512"><title>coding</title><path d="m324.457 383.109h-136.914l-5.545 60.202h148.004z" fill="#4e5660"/><path d="m354.192 483.969h-196.384c-8.553 0-14.703-8.222-12.288-16.426l1.786-6.067c3.17-10.77 13.056-18.165 24.283-18.165h168.823c11.227 0 21.113 7.395 24.283 18.165l1.786 6.067c2.414 8.205-3.736 16.426-12.289 16.426z" fill="#c6c6c6"/><path d="m236.383 443.311h-64.794c-11.227 0-21.113 7.395-24.283 18.165l-1.786 6.066c-2.415 8.205 3.735 16.426 12.288 16.426h87.462c-8.379-11.257-10.92-21.422-8.887-40.657z" fill="#9aa3b1"/><path d="m450.933 383.109h-389.866c-33.726 0-61.067-27.341-61.067-61.067v-232.944c0-33.726 27.341-61.067 61.067-61.067h389.866c33.726 0 61.067 27.341 61.067 61.067v232.944c0 33.726-27.341 61.067-61.067 61.067z" fill="#4e5660"/><path d="m61.067 28.031c-33.726 0-61.067 27.34-61.067 61.067v232.944c0 33.726 27.341 61.067 61.067 61.067h126.476c-64.068-47.461-78.24-203.403-57.124-355.078z" fill="#383c43"/><path d="m41.768 314.341v-217.542c0-14.912 12.088-27 27-27h374.464c14.912 0 27 12.088 27 27v217.542c0 14.912-12.088 27-27 27h-374.464c-14.912 0-27-12.088-27-27z" fill="#f7ef87"/><path d="m125.512 69.799h-56.744c-14.912 0-27 12.088-27 27v217.542c0 14.912 12.088 27 27 27h85.607c-31.156-61.307-39.08-164.918-28.863-271.542z" fill="#efd176"/><path d="m443.232 69.799h-187.232v271.542h187.232c14.912 0 27-12.088 27-27v-217.542c0-14.912-12.089-27-27-27z" fill="#383c43"/><path d="m0 304.954v17.088c0 33.726 27.341 61.067 61.067 61.067h389.866c33.726 0 61.067-27.341 61.067-61.067v-17.088z" fill="#c6c6c6"/><circle cx="256" cy="344.032" fill="#4e5660" r="14.822"/><g fill="#fff"><path d="m333.402 180.122c-1.919 0-3.839-.732-5.303-2.196l-27.878-27.879c-1.407-1.407-2.197-3.314-2.197-5.304 0-1.989.79-3.896 2.197-5.304l27.878-27.878c2.929-2.929 7.678-2.927 10.607 0 2.929 2.93 2.929 7.678 0 10.607l-22.575 22.574 22.575 22.575c2.929 2.93 2.929 7.678 0 10.607-1.465 1.466-3.385 2.198-5.304 2.198z"/><path d="m392.83 180.122c-1.919 0-3.839-.732-5.303-2.196-2.929-2.93-2.929-7.678 0-10.607l22.575-22.575-22.575-22.574c-2.929-2.93-2.929-7.678 0-10.607 2.929-2.928 7.678-2.928 10.606 0l27.878 27.878c1.407 1.407 2.197 3.314 2.197 5.304 0 1.989-.79 3.896-2.197 5.304l-27.878 27.879c-1.465 1.462-3.384 2.194-5.303 2.194z"/><path d="m347.458 195.264c-.852 0-1.718-.146-2.564-.454-3.893-1.417-5.899-5.721-4.483-9.613l31.315-86.037c1.417-3.893 5.721-5.899 9.613-4.482 3.893 1.417 5.899 5.721 4.483 9.613l-31.315 86.037c-1.109 3.044-3.986 4.936-7.049 4.936z"/></g><path d="m404.206 277.162h-46.706c-4.142 0-7.5-3.357-7.5-7.5s3.358-7.5 7.5-7.5h46.707c4.142 0 7.5 3.357 7.5 7.5-.001 4.143-3.359 7.5-7.501 7.5z" fill="#8ee2cf"/><path d="m334.667 277.162h-21.424c-4.142 0-7.5-3.357-7.5-7.5s3.358-7.5 7.5-7.5h21.424c4.142 0 7.5 3.357 7.5 7.5s-3.358 7.5-7.5 7.5z" fill="#e8899e"/><path d="m412.989 254.013h-26.72c-4.142 0-7.5-3.357-7.5-7.5s3.358-7.5 7.5-7.5h26.72c4.142 0 7.5 3.357 7.5 7.5 0 4.142-3.358 7.5-7.5 7.5z" fill="#e8899e"/><path d="m363.437 254.013h-50.194c-4.142 0-7.5-3.357-7.5-7.5s3.358-7.5 7.5-7.5h50.194c4.142 0 7.5 3.357 7.5 7.5-.001 4.142-3.358 7.5-7.5 7.5z" fill="#fff"/><path d="m387.555 230.862h-28.452c-4.142 0-7.5-3.357-7.5-7.5s3.358-7.5 7.5-7.5h28.452c4.142 0 7.5 3.357 7.5 7.5s-3.358 7.5-7.5 7.5z" fill="#8ee2cf"/><path d="m336.271 230.862h-23.028c-4.142 0-7.5-3.357-7.5-7.5s3.358-7.5 7.5-7.5h23.028c4.142 0 7.5 3.357 7.5 7.5s-3.358 7.5-7.5 7.5z" fill="#a3defe"/><path d="m214.118 220.781c0 1.809-.895 3.618-2.686 4.652l-52.573 30.353c-6.173 3.564-13.777 3.564-19.95 0l-52.573-30.353c-1.79-1.034-2.686-2.843-2.686-4.652v-72.239h130.468z" fill="#8eafe2"/><path d="m83.65 148.543v72.239c0 1.809.896 3.618 2.686 4.652l41.382 23.892c-4.618-30.943-6.677-65.085-6.387-100.782h-37.681z" fill="#6a96d7"/><path d="m148.884 258.459c3.444 0 6.889-.891 9.975-2.673l52.573-30.353c1.791-1.034 2.686-2.843 2.686-4.652v-72.238h-65.234z" fill="#7acefa"/><path d="m86.336 143.891 52.573-30.353c6.173-3.564 13.777-3.564 19.95 0l52.573 30.353c3.581 2.068 3.581 7.236 0 9.304l-52.573 30.353c-6.173 3.564-13.777 3.564-19.95 0l-52.573-30.353c-3.581-2.068-3.581-7.237 0-9.304z" fill="#a3defe"/><path d="m121.915 123.349-35.579 20.542c-3.581 2.068-3.581 7.237 0 9.304l35.186 20.315c-.388-16.351-.25-33.127.393-50.161z" fill="#7acefa"/><path d="m0 322.042c0 33.726 27.341 61.067 61.067 61.067h126.476c-21.098-15.629-36.782-43.025-47.58-78.155h-139.963z" fill="#9aa3b1"/></symbol><symbol id="web-development" viewBox="0 0 512 512"><title>web-development</title><path d="M371.048,117.043c0-3.797-3.52-6.761-6.298-6.761c-0.648,0-1.297,0.092-1.76,0.463l-23.526,15.282 c-2.13,1.39-2.871,3.612-2.871,5.187c0,1.575,0.741,3.798,2.871,5.188l23.526,15.282c0.463,0.37,1.111,0.463,1.76,0.463 c2.778,0,6.298-2.964,6.298-6.762c0-1.574-0.648-2.964-1.667-3.612l-16.302-10.559l16.302-10.559 C370.399,120.007,371.048,118.618,371.048,117.043z"/><path d="M417.638,85.367c-1.667,0-3.149,0.74-3.89,2.315l-32.51,66.779c-0.278,0.556-0.464,1.204-0.464,1.76 c0,2.315,2.038,4.909,5.188,4.909c1.76,0,3.52-0.927,4.168-2.315l32.603-66.78c0.277-0.556,0.37-1.204,0.37-1.76 C423.102,87.312,420.231,85.367,417.638,85.367z"/><path d="M464.414,126.027l-23.525-15.282c-0.463-0.371-1.111-0.463-1.76-0.463c-2.779,0-6.299,2.964-6.299,6.761 c0,1.575,0.648,2.964,1.668,3.612l16.301,10.559l-16.301,10.559c-1.02,0.648-1.668,2.038-1.668,3.612 c0,3.798,3.52,6.762,6.299,6.762c0.648,0,1.297-0.093,1.76-0.463l23.525-15.282c2.131-1.39,2.871-3.612,2.871-5.188 C467.285,129.64,466.545,127.417,464.414,126.027z"/><path d="M475.95,37.29H314.463C306.12,15.507,284.992,0,260.309,0H151.997c-31.96,0-57.962,26.002-57.962,57.962v65.814 c-6.46,5.567-9.467,14.276-7.875,23.04l4.257,23.432c1.53,8.044,5.803,12.18,9.118,14.232c3.706,2.294,7.819,3.052,11.595,3.069 l0.001,4.164c0,21.127,12.325,44.41,33.815,63.88c4.046,3.665,8.253,7.044,12.541,10.1v12.56c0,3.828-2.732,7.113-6.496,7.813 c-0.174,0.032-0.348,0.071-0.519,0.115c-0.131,0.034-13.006,3.39-29.835,8.163H65.639c-6.184,0-12.147,2.596-16.362,7.121 c-4.214,4.525-6.379,10.659-5.939,16.827l0.151,2.12C18.888,332.746,3.413,354.862,1.938,380c-0.006,0.105-0.01,0.21-0.012,0.315 l-1.71,103.241c-0.091,7.57,2.789,14.706,8.109,20.091C13.647,509.034,20.747,512,28.319,512h355.669 c7.571,0,14.671-2.966,19.992-8.352s8.201-12.521,8.109-20.125l-1.709-103.208c-0.002-0.105-0.006-0.21-0.012-0.315 c-1.517-25.863-17.854-48.529-43.703-60.631c-0.476-0.223-0.971-0.45-1.483-0.681l0.028-0.395 c0.439-6.168-1.726-12.302-5.939-16.827c-4.215-4.525-10.179-7.121-16.362-7.121H291.67c-16.828-4.773-29.705-8.129-29.835-8.163 c-0.172-0.044-0.345-0.083-0.519-0.115c-3.765-0.699-6.496-3.984-6.496-7.813v-12.56c4.288-3.056,8.495-6.435,12.541-10.1 c13.658-12.374,23.614-26.288,29.057-40.21h48.728l-8.511,34.354c-1.419,5.729,0.855,11.521,5.795,14.752 c2.319,1.518,4.92,2.271,7.511,2.271c2.929,0,5.845-0.962,8.328-2.869l63.148-48.508h54.532c19.76,0,35.836-16.076,35.836-35.836 V73.126C511.786,53.366,495.71,37.29,475.95,37.29z M301.191,136.734c2.866-0.978,5.581-1.377,7.352-1.539 c2.353,2.089,3.465,5.533,2.847,8.939l-4.234,23.311c-0.618,3.254-1.868,4.027-2.279,4.281c-0.871,0.539-2.155,0.817-3.694,0.833 L301.191,136.734z M109.035,57.962c0-23.689,19.273-42.962,42.962-42.962h108.313c23.689,0,42.963,19.272,42.963,42.962V120.8 c-3.713,0.656-8.334,1.914-12.845,4.32V79.422c0-16.435-13.37-29.805-29.805-29.805h-20.268c-7.026,0-13.891,2.449-19.332,6.896 l-1.986,1.625c-3.625,2.964-8.201,4.596-12.885,4.596c-4.683,0-9.259-1.632-12.883-4.595l-1.989-1.627 c-5.439-4.446-12.304-6.896-19.33-6.896h-20.267c-16.435,0-29.805,13.37-29.805,29.805v45.698 c-4.511-2.406-9.132-3.665-12.845-4.32V57.962z M107.43,171.727c-0.411-0.254-1.66-1.027-2.268-4.221l-4.245-23.37 c-0.618-3.404,0.491-6.844,2.841-8.935c1.77,0.16,4.487,0.554,7.357,1.531l0.01,35.828 C109.587,172.544,108.302,172.266,107.43,171.727z M41.07,491.568c0,1.88,0.256,3.701,0.733,5.432H28.319 c-3.531,0-6.841-1.383-9.322-3.895c-2.481-2.511-3.824-5.838-3.782-9.334l1.707-103.045c1.107-18.009,11.088-33.62,27.742-43.83 l9.157,128.472c0.168,2.358,0.704,4.612,1.548,6.709C47.09,474.688,41.07,482.438,41.07,491.568z M354.727,465.369l9.305-130.545 c18.817,10.097,30.168,26.627,31.353,45.901l1.706,103.013c0.042,3.529-1.301,6.856-3.781,9.367 c-2.481,2.512-5.792,3.895-9.322,3.895h-13.484c0.478-1.73,0.733-3.552,0.733-5.432c0-10.363-7.755-18.947-17.766-20.257 C354.148,469.435,354.58,467.442,354.727,465.369z M356.237,491.568c0,2.995-2.437,5.432-5.431,5.432H61.501 c-2.995,0-5.431-2.437-5.431-5.432c0-2.994,2.437-5.431,5.431-5.431h289.306C353.801,486.138,356.237,488.574,356.237,491.568z M348.294,311.688c1.407,1.512,2.102,3.478,1.954,5.538l-10.483,147.077c-0.272,3.832-3.496,6.834-7.339,6.834H76.122 c-3.843,0-7.066-3.002-7.34-6.835L58.299,317.227c-0.147-2.061,0.547-4.027,1.955-5.538c1.408-1.512,3.32-2.344,5.385-2.344 h277.271C344.973,309.345,346.887,310.177,348.294,311.688z M246.409,294.345h-80.512c4.103-4.174,6.589-9.886,6.589-16.091 v-3.356c11.827,6.121,23.577,9.556,33.667,9.556c10.09,0,21.84-3.434,33.667-9.556v3.356 C239.82,284.459,242.306,290.171,246.409,294.345z M257.29,244.478c-16.747,15.172-36.819,24.976-51.137,24.976 c-14.317,0-34.39-9.804-51.136-24.976c-18.358-16.632-28.887-35.863-28.887-52.766l-0.013-47.253 c0.097,0.003,0.194,0.004,0.291,0.004c1.356,0,2.725-0.265,4.032-0.811c3.912-1.632,6.439-5.424,6.439-9.659V79.422 c0-8.163,6.641-14.805,14.805-14.805h20.267c3.575,0,7.068,1.246,9.834,3.508l1.99,1.627c6.297,5.147,14.244,7.982,22.377,7.982 s16.081-2.835,22.38-7.983l1.986-1.625c2.768-2.263,6.261-3.509,9.836-3.509h20.268c8.163,0,14.805,6.642,14.805,14.805v54.572 c0,4.235,2.527,8.027,6.439,9.659c1.4,0.585,2.872,0.848,4.322,0.808l-0.012,47.253 C286.177,208.614,275.647,227.846,257.29,244.478z M496.786,179.548c0,11.489-9.347,20.836-20.836,20.836h-57.08 c-1.652,0-3.259,0.546-4.568,1.552l-62.208,47.785l9.918-40.033c0.555-2.239,0.048-4.609-1.374-6.426 c-1.421-1.816-3.6-2.878-5.906-2.878h-54.223c0.442-2.919,0.668-5.813,0.668-8.668l0.001-4.166 c3.776-0.017,7.889-0.775,11.596-3.069c3.314-2.053,7.588-6.188,9.129-14.293l4.245-23.372c1.592-8.765-1.417-17.476-7.875-23.039 V57.962c0-1.913-0.093-3.805-0.276-5.672H475.95c11.489,0,20.836,9.347,20.836,20.836V179.548z"/><path d="M206.153,424.368c15.547,0,28.195-12.648,28.195-28.195s-12.648-28.195-28.195-28.195s-28.195,12.648-28.195,28.195 S190.606,424.368,206.153,424.368z M206.153,382.978c7.276,0,13.195,5.919,13.195,13.195s-5.919,13.195-13.195,13.195 s-13.195-5.919-13.195-13.195S198.877,382.978,206.153,382.978z"/></symbol><symbol id="web-development-1" viewBox="0 0 512 512"><title>web-development-1</title><g> <g> <path style="fill:#88DBFD;" d="M475.95,44.79H287.809c-15.649,0-28.336,12.686-28.336,28.336v106.422 c0,15.649,12.686,28.336,28.336,28.336h66.923l-10.815,43.658c-1.409,5.689,5.138,9.971,9.785,6.401l65.169-50.059h57.08 c15.649,0,28.336-12.686,28.336-28.336V73.126C504.286,57.477,491.599,44.79,475.95,44.79z"/> <g> <path style="fill:#5ABFE9;" d="M352.282,217.772l-8.366,33.77c-1.409,5.689,5.138,9.971,9.785,6.401l65.169-50.059h-53.716 L352.282,217.772z"/> <path style="fill:#5ABFE9;" d="M475.95,44.79h-53.716c15.65,0,28.336,12.686,28.336,28.336v106.422 c0,15.649-12.686,28.336-28.336,28.336h53.716c15.649,0,28.336-12.686,28.336-28.336V73.126 C504.286,57.477,491.599,44.79,475.95,44.79z"/> </g> </g> <g> <g> <g> <g> <g> <g> <g> <g> <g> <g> <g> <g> <path style="fill:#FCC18B;" d="M402.882,380.44c-1.41-24.044-16.676-43.641-39.395-54.278h0 c-27.809-13.02-103.54-32.721-103.54-32.721c-7.318-1.359-12.626-7.744-12.626-15.187v-43.291h-41.167h0h0h-41.167 v43.291c0,7.443-5.308,13.828-12.626,15.187c0,0-75.731,19.701-103.54,32.721h0 c-22.719,10.637-37.985,30.234-39.395,54.278L7.716,483.647C7.577,495.123,16.842,504.5,28.318,504.5h355.67 c11.477,0,20.741-9.377,20.603-20.853L402.882,380.44z"/> </g> </g> </g> <g> <path style="fill:#EAAB65;" d="M402.882,380.44c-1.41-24.044-16.676-43.641-39.395-54.278h0 c-27.809-13.02-103.54-32.721-103.54-32.721c-7.318-1.359-12.626-7.744-12.626-15.187v-43.291h-41.167h0h0h-12.549 v69.254c0,7.443,5.308,13.828,12.626,15.187c0,0,75.731,19.701,103.54,32.721h0 c22.719,10.637,37.985,30.234,39.395,54.278l1.625,98.097h33.197c11.477,0,20.741-9.377,20.603-20.853L402.882,380.44z"/> </g> <g> <g> <g> <g> <path style="fill:#EAAB65;" d="M120.8,125.369h-10.809c-3.915,0-7.522,1.323-10.397,3.545 c-4.993,3.86-7.184,10.351-6.056,16.561l4.245,23.372c3.295,17.322,23.043,9.407,23.043,9.407L120.8,125.369z"/> <path style="fill:#FCC18B;" d="M291.506,125.369h10.809c3.915,0,7.522,1.323,10.397,3.545 c4.993,3.86,7.184,10.351,6.056,16.561l-4.245,23.372c-3.295,17.322-23.043,9.407-23.043,9.407L291.506,125.369z"/> </g> </g> </g> </g> </g> </g> </g> </g> </g> <path style="fill:#FCC18B;" d="M266.062,36.547c-14.055-12.995-33.811-24.338-59.908-24.651 c-26.097,0.313-45.853,11.656-59.908,24.651c-17.927,16.575-27.639,41.191-27.639,66.595l0.024,88.573 c0,41.873,54.428,85.239,87.523,85.239s87.523-43.366,87.523-85.239l0.024-88.573C293.7,77.738,283.988,53.122,266.062,36.547 z"/> <path style="fill:#EAAB65;" d="M266.062,36.547c-14.055-12.995-33.811-24.338-59.908-24.651 c-9.844,0.118-18.784,1.807-26.858,4.56c13.331,4.546,24.297,11.997,33.05,20.091c17.927,16.575,27.638,41.191,27.638,66.595 l-0.024,88.573c0,31.684-31.162,64.217-60.665,78.176c9.488,4.489,18.805,7.063,26.858,7.063 c33.095,0,87.523-43.366,87.523-85.239l0.024-88.573C293.7,77.738,283.988,53.122,266.062,36.547z"/> <path style="fill:#426175;" d="M260.31,7.5h-54.157h-54.157c-27.87,0-50.462,22.593-50.462,50.462v69.63 c0,0,13.896-0.314,22.825,8.523c1.86,1.84,5.02,0.496,5.02-2.121V79.422c0-12.319,9.986-22.305,22.305-22.305h20.267 c5.316,0,10.468,1.838,14.583,5.202l1.988,1.625c4.975,4.068,11.204,6.29,17.631,6.29c6.427,0,12.656-2.222,17.631-6.29 l1.988-1.625c4.115-3.364,9.267-5.202,14.583-5.202h20.267c12.319,0,22.305,9.986,22.305,22.305v54.573 c0,2.616,3.16,3.961,5.02,2.121c8.929-8.837,22.825-8.523,22.825-8.523v-69.63C310.772,30.093,288.179,7.5,260.31,7.5z"/> <g> <path style="fill:#2C4456;" d="M260.31,7.5h-18.734c9.428,11.098,15.34,27.766,15.491,49.617h3.556 c12.318,0,22.305,9.986,22.305,22.305v54.573c0,2.616,3.16,3.961,5.02,2.121c8.929-8.837,22.825-8.523,22.825-8.523v-69.63 C310.772,30.093,288.179,7.5,260.31,7.5z"/> </g> </g> <path style="fill:#33BCA5;" d="M363.486,326.162L363.486,326.162c-16.183-7.576-48.589-17.414-72.861-24.317l-5.25,1.989 c-51.045,19.335-107.399,19.335-158.443,0l-5.25-1.989c-24.272,6.903-56.678,16.74-72.861,24.317h0 c-22.719,10.637-37.985,30.234-39.395,54.278L7.716,483.647C7.577,495.123,16.842,504.5,28.318,504.5h355.67 c11.477,0,20.741-9.377,20.603-20.853l-1.709-103.207C401.471,356.396,386.205,336.799,363.486,326.162z"/> </g> <g> <path style="fill:#F2F2F2;" d="M332.425,478.638H76.122c-7.796,0-14.266-6.026-14.821-13.802L50.818,317.76 c-0.613-8.6,6.199-15.915,14.821-15.915h277.27c8.622,0,15.434,7.315,14.821,15.915l-10.483,147.076 C346.692,472.612,340.221,478.638,332.425,478.638z"/> <path style="fill:#CDD6DF;" d="M342.909,301.845H288.8c8.622,0,15.434,7.315,14.821,15.915l-11.467,160.878h40.272 c7.796,0,14.267-6.026,14.821-13.802l10.483-147.076C358.342,309.16,351.531,301.845,342.909,301.845z"/> <path style="fill:#CDD6DF;" d="M350.806,504.5H61.501c-7.142,0-12.931-5.789-12.931-12.931v0 c0-7.142,5.789-12.931,12.931-12.931h289.305c7.142,0,12.931,5.789,12.931,12.931v0 C363.737,498.711,357.948,504.5,350.806,504.5z"/> </g> </g> <circle style="fill:#FFFFFF;" cx="206.153" cy="396.173" r="20.695"/> </g> </g><g> <path d="M371.048,117.043c0-3.797-3.52-6.761-6.298-6.761c-0.648,0-1.297,0.092-1.76,0.463l-23.526,15.282 c-2.13,1.39-2.871,3.612-2.871,5.187c0,1.575,0.741,3.798,2.871,5.188l23.526,15.282c0.463,0.37,1.111,0.463,1.76,0.463 c2.778,0,6.298-2.964,6.298-6.762c0-1.574-0.648-2.964-1.667-3.612l-16.302-10.559l16.302-10.559 C370.399,120.007,371.048,118.618,371.048,117.043z"/> <path d="M417.638,85.367c-1.667,0-3.149,0.74-3.89,2.315l-32.51,66.779c-0.278,0.556-0.464,1.204-0.464,1.76 c0,2.315,2.038,4.909,5.188,4.909c1.76,0,3.52-0.927,4.168-2.315l32.603-66.78c0.277-0.556,0.37-1.204,0.37-1.76 C423.102,87.312,420.231,85.367,417.638,85.367z"/> <path d="M464.414,126.027l-23.525-15.282c-0.463-0.371-1.111-0.463-1.76-0.463c-2.779,0-6.299,2.964-6.299,6.761 c0,1.575,0.648,2.964,1.668,3.612l16.301,10.559l-16.301,10.559c-1.02,0.648-1.668,2.038-1.668,3.612 c0,3.798,3.52,6.762,6.299,6.762c0.648,0,1.297-0.093,1.76-0.463l23.525-15.282c2.131-1.39,2.871-3.612,2.871-5.188 C467.285,129.64,466.545,127.417,464.414,126.027z"/> <path d="M475.95,37.29H314.463C306.12,15.507,284.992,0,260.309,0H151.997c-31.96,0-57.962,26.002-57.962,57.962v65.814 c-6.46,5.567-9.467,14.276-7.875,23.04l4.257,23.432c1.53,8.044,5.803,12.18,9.118,14.232c3.706,2.294,7.819,3.052,11.595,3.069 l0.001,4.164c0,21.127,12.325,44.41,33.815,63.88c4.046,3.665,8.253,7.044,12.541,10.1v12.56c0,3.828-2.732,7.113-6.496,7.813 c-0.174,0.032-0.348,0.071-0.519,0.115c-0.131,0.034-13.006,3.39-29.835,8.163H65.639c-6.184,0-12.147,2.596-16.362,7.121 c-4.214,4.525-6.379,10.659-5.939,16.827l0.151,2.12C18.888,332.746,3.413,354.862,1.938,380c-0.006,0.105-0.01,0.21-0.012,0.315 l-1.71,103.241c-0.091,7.57,2.789,14.706,8.109,20.091C13.647,509.034,20.747,512,28.319,512h355.669 c7.571,0,14.671-2.966,19.992-8.352s8.201-12.521,8.109-20.125l-1.709-103.208c-0.002-0.105-0.006-0.21-0.012-0.315 c-1.517-25.863-17.854-48.529-43.703-60.631c-0.476-0.223-0.971-0.45-1.483-0.681l0.028-0.395 c0.439-6.168-1.726-12.302-5.939-16.827c-4.215-4.525-10.179-7.121-16.362-7.121H291.67c-16.828-4.773-29.705-8.129-29.835-8.163 c-0.172-0.044-0.345-0.083-0.519-0.115c-3.765-0.699-6.496-3.984-6.496-7.813v-12.56c4.288-3.056,8.495-6.435,12.541-10.1 c13.658-12.374,23.614-26.288,29.057-40.21h48.728l-8.511,34.354c-1.419,5.729,0.855,11.521,5.795,14.752 c2.319,1.518,4.92,2.271,7.511,2.271c2.929,0,5.845-0.962,8.328-2.869l63.148-48.508h54.532c19.76,0,35.836-16.076,35.836-35.836 V73.126C511.786,53.366,495.71,37.29,475.95,37.29z M301.191,136.734c2.866-0.978,5.581-1.377,7.352-1.539 c2.353,2.089,3.465,5.533,2.847,8.939l-4.234,23.311c-0.618,3.254-1.868,4.027-2.279,4.281c-0.871,0.539-2.155,0.817-3.694,0.833 L301.191,136.734z M109.035,57.962c0-23.689,19.273-42.962,42.962-42.962h108.313c23.689,0,42.963,19.272,42.963,42.962V120.8 c-3.713,0.656-8.334,1.914-12.845,4.32V79.422c0-16.435-13.37-29.805-29.805-29.805h-20.268c-7.026,0-13.891,2.449-19.332,6.896 l-1.986,1.625c-3.625,2.964-8.201,4.596-12.885,4.596c-4.683,0-9.259-1.632-12.883-4.595l-1.989-1.627 c-5.439-4.446-12.304-6.896-19.33-6.896h-20.267c-16.435,0-29.805,13.37-29.805,29.805v45.698 c-4.511-2.406-9.132-3.665-12.845-4.32V57.962z M107.43,171.727c-0.411-0.254-1.66-1.027-2.268-4.221l-4.245-23.37 c-0.618-3.404,0.491-6.844,2.841-8.935c1.77,0.16,4.487,0.554,7.357,1.531l0.01,35.828 C109.587,172.544,108.302,172.266,107.43,171.727z M41.07,491.568c0,1.88,0.256,3.701,0.733,5.432H28.319 c-3.531,0-6.841-1.383-9.322-3.895c-2.481-2.511-3.824-5.838-3.782-9.334l1.707-103.045c1.107-18.009,11.088-33.62,27.742-43.83 l9.157,128.472c0.168,2.358,0.704,4.612,1.548,6.709C47.09,474.688,41.07,482.438,41.07,491.568z M354.727,465.369l9.305-130.545 c18.817,10.097,30.168,26.627,31.353,45.901l1.706,103.013c0.042,3.529-1.301,6.856-3.781,9.367 c-2.481,2.512-5.792,3.895-9.322,3.895h-13.484c0.478-1.73,0.733-3.552,0.733-5.432c0-10.363-7.755-18.947-17.766-20.257 C354.148,469.435,354.58,467.442,354.727,465.369z M356.237,491.568c0,2.995-2.437,5.432-5.431,5.432H61.501 c-2.995,0-5.431-2.437-5.431-5.432c0-2.994,2.437-5.431,5.431-5.431h289.306C353.801,486.138,356.237,488.574,356.237,491.568z M348.294,311.688c1.407,1.512,2.102,3.478,1.954,5.538l-10.483,147.077c-0.272,3.832-3.496,6.834-7.339,6.834H76.122 c-3.843,0-7.066-3.002-7.34-6.835L58.299,317.227c-0.147-2.061,0.547-4.027,1.955-5.538c1.408-1.512,3.32-2.344,5.385-2.344 h277.271C344.973,309.345,346.887,310.177,348.294,311.688z M246.409,294.345h-80.512c4.103-4.174,6.589-9.886,6.589-16.091 v-3.356c11.827,6.121,23.577,9.556,33.667,9.556c10.09,0,21.84-3.434,33.667-9.556v3.356 C239.82,284.459,242.306,290.171,246.409,294.345z M257.29,244.478c-16.747,15.172-36.819,24.976-51.137,24.976 c-14.317,0-34.39-9.804-51.136-24.976c-18.358-16.632-28.887-35.863-28.887-52.766l-0.013-47.253 c0.097,0.003,0.194,0.004,0.291,0.004c1.356,0,2.725-0.265,4.032-0.811c3.912-1.632,6.439-5.424,6.439-9.659V79.422 c0-8.163,6.641-14.805,14.805-14.805h20.267c3.575,0,7.068,1.246,9.834,3.508l1.99,1.627c6.297,5.147,14.244,7.982,22.377,7.982 s16.081-2.835,22.38-7.983l1.986-1.625c2.768-2.263,6.261-3.509,9.836-3.509h20.268c8.163,0,14.805,6.642,14.805,14.805v54.572 c0,4.235,2.527,8.027,6.439,9.659c1.4,0.585,2.872,0.848,4.322,0.808l-0.012,47.253 C286.177,208.614,275.647,227.846,257.29,244.478z M496.786,179.548c0,11.489-9.347,20.836-20.836,20.836h-57.08 c-1.652,0-3.259,0.546-4.568,1.552l-62.208,47.785l9.918-40.033c0.555-2.239,0.048-4.609-1.374-6.426 c-1.421-1.816-3.6-2.878-5.906-2.878h-54.223c0.442-2.919,0.668-5.813,0.668-8.668l0.001-4.166 c3.776-0.017,7.889-0.775,11.596-3.069c3.314-2.053,7.588-6.188,9.129-14.293l4.245-23.372c1.592-8.765-1.417-17.476-7.875-23.039 V57.962c0-1.913-0.093-3.805-0.276-5.672H475.95c11.489,0,20.836,9.347,20.836,20.836V179.548z"/> <path d="M206.153,424.368c15.547,0,28.195-12.648,28.195-28.195s-12.648-28.195-28.195-28.195s-28.195,12.648-28.195,28.195 S190.606,424.368,206.153,424.368z M206.153,382.978c7.276,0,13.195,5.919,13.195,13.195s-5.919,13.195-13.195,13.195 s-13.195-5.919-13.195-13.195S198.877,382.978,206.153,382.978z"/> </g></symbol><symbol id="male-close-up-silhouette-with-tie" viewBox="0 0 29.486 29.486"><title>male-close-up-silhouette-with-tie</title><path d="M11.845,26.91l2.897-7.922l-0.897-1.925h1.795l-0.898,1.925l2.897,7.922l-1.82,2.514c3.691-0.617,9.581-3.893,12.438-3.893 l-1-4.313c-0.307-0.313-0.668-0.578-1.085-0.793c-2.097-1.073-4.265-1.966-6.458-2.808c-0.164-0.062-0.359-0.186-0.426-0.33 c-0.18-0.396-0.303-0.815-0.433-1.229c-0.079-0.267-0.149-0.515-0.44-0.644c-0.079-0.035-0.149-0.188-0.149-0.285 c0.017-0.963-0.207-1.974,0.507-2.814c0.022-0.026,0.031-0.063,0.047-0.094c0.385-0.843,0.452-1.808,0.99-2.593 c0.014-0.018,0.018-0.043,0.02-0.066c0.063-0.6,0.127-1.196,0.179-1.795c0.006-0.074-0.06-0.206-0.123-0.229 c-0.297-0.104-0.281-0.343-0.279-0.581c0-1.17,0-1.34-0.002-2.51c0-0.68-0.2-1.284-0.714-1.747 c-0.585-0.525-1.188-1.034-1.788-1.542c-0.289-0.246-0.315-0.435-0.044-0.705c0.121-0.119,0.273-0.205,0.414-0.305 c-0.031-0.047-0.061-0.092-0.091-0.138c-0.183,0-0.366-0.024-0.542,0.003c-0.665,0.107-1.333,0.201-1.986,0.355 c-1.247,0.294-2.458,0.684-3.47,1.52c-0.692,0.57-1.245,1.234-1.315,2.175c-0.034,0.493-0.03,0.988-0.034,1.481 c-0.005,0.804,0.007,0.608-0.011,1.41C10.02,7.084,9.947,7.3,9.855,7.329C9.531,7.434,9.521,7.642,9.565,7.913 c0.032,0.186,0.009,0.381,0.049,0.563C9.726,8.978,9.846,9.48,9.991,9.975c0.106,0.368,0.316,0.716,0.375,1.091 c0.115,0.748,0.394,1.398,0.899,1.963c0.082,0.094,0.146,0.25,0.136,0.375c-0.04,0.574-0.098,1.15-0.176,1.723 c-0.017,0.111-0.134,0.277-0.229,0.298c-0.383,0.079-0.441,0.374-0.533,0.673c-0.12,0.393-0.248,0.785-0.4,1.166 c-0.048,0.119-0.167,0.242-0.284,0.294c-0.68,0.296-1.373,0.569-2.058,0.856c-0.729,0.307-1.466,0.6-2.177,0.938 c-0.734,0.352-1.446,0.746-2.165,1.131c-0.423,0.227-0.818,0.479-1.149,0.788l-1,4.261c4.871,0,7.415,3.521,12.483,3.955 L11.845,26.91z M19.491,22.716H23.7v0.75h-4.209V22.716z"/></symbol><symbol id="user-black-shape" viewBox="0 0 537.03 537.03"><title>user-black-shape</title><path d="M427.635,237.15h-52.76c-27.18,27.381-64.824,44.37-106.36,44.37c-41.537,0-79.181-16.989-106.359-44.37h-52.761 c-16.897,0-30.6,13.703-30.6,30.6v238.68c0,16.896,13.703,30.6,30.6,30.6h318.24c16.898,0,30.6-13.703,30.6-30.6V267.75 C458.235,250.853,444.534,237.15,427.635,237.15z"/><path d="M190.216,237.15c21.897,16.267,48.929,26.01,78.299,26.01c29.37,0,56.403-9.743,78.299-26.01 c32.271-23.979,53.281-62.271,53.281-105.57C400.096,58.911,341.184,0,268.516,0c-72.669,0-131.58,58.911-131.58,131.58 C136.936,174.879,157.946,213.172,190.216,237.15z"/></symbol><symbol id="folder" viewBox="0 0 456.682 456.682"><title>folder</title><path d="M447.976,138.861c-7.544-9.4-18.776-14.568-30.824-14.568H399.24c-3.52-16-19.384-32-38.4-32H168 c-13.232,0-24-10.768-24-24c0-22.056-17.944-40-40-40H40c-22.056,0-40,17.944-40,40v320c0,22.056,17.944,40,40,40h2.704 c1.712,0.216,3.432,0,5.184,0H367c18.672,0,34.528-12.552,38.576-30.776l50.152-225.576 C458.344,160.173,455.52,148.261,447.976,138.861z M16,68.293c0-13.232,10.768-24,24-24h64c13.232,0,24,10.768,24,24 c0,22.056,17.944,40,40,40h192.832c10.136,0,18.752,8,21.88,16H97c-18.672,0-34.528,12.552-38.576,30.776L16,345.789V68.293z M439.416,168.325l-50.152,225.888c-2.336,10.512-11.488,18.08-22.264,18.08H47.888c-7.208,0-13.928-3.408-18.448-9.032 c-4.504-5.624-6.192-12.976-4.632-20.008l49.92-224.872c2.336-10.512,11.496-18.08,22.264-18.08h320.152 c6.96-0.008,13.44,3.28,17.8,8.704C439.296,154.437,440.92,161.533,439.416,168.325z"/></symbol><symbol id="circular-clock-three-o-clock" viewBox="0 0 315.829 315.828"><title>circular-clock-three-o-clock</title><path d="M157.953,315.828C70.73,315.828,0.03,245.091,0.03,157.905C0.03,70.676,70.724,0,157.953,0 c87.193,0,157.845,70.676,157.845,157.905C315.798,245.091,245.133,315.828,157.953,315.828z M157.896,38.088 c-66.02,0-119.57,53.206-119.57,119.226c0,66.082,53.551,119.573,119.57,119.573c66.017,0,119.567-53.491,119.567-119.573 C277.463,91.294,223.913,38.088,157.896,38.088z M155.695,177.015c-9.968,0-18.047-8.1-18.047-18.064v-26.614V76.191 c0-9.986,9.311-18.089,19.338-18.089c9.965,0,20.551,8.104,20.551,18.089v43.318c0,10.19,8.257,18.528,18.447,18.621l20.788,0.195 c9.968,0,18.093,10.583,18.093,20.624c0,9.965-8.125,18.064-18.093,18.064H155.695z"/></symbol><symbol id="arrow" viewBox="0 0 438.533 438.533"><title>arrow</title><path d="M409.133,109.203c-19.608-33.592-46.205-60.189-79.798-79.796C295.736,9.801,259.058,0,219.273,0 c-39.781,0-76.47,9.801-110.063,29.407c-33.595,19.604-60.192,46.201-79.8,79.796C9.801,142.8,0,179.489,0,219.267 c0,39.78,9.804,76.463,29.407,110.062c19.607,33.592,46.204,60.189,79.799,79.798c33.597,19.605,70.283,29.407,110.063,29.407 s76.47-9.802,110.065-29.407c33.593-19.602,60.189-46.206,79.795-79.798c19.603-33.596,29.403-70.284,29.403-110.062 C438.533,179.485,428.732,142.795,409.133,109.203z M361.733,232.111l-25.978,25.981l-103.35,103.349 c-3.433,3.43-7.714,5.147-12.852,5.147c-5.137,0-9.419-1.718-12.847-5.147l-25.981-25.98c-3.616-3.607-5.424-7.898-5.424-12.847 c0-4.942,1.809-9.227,5.424-12.847l53.962-53.954H91.363c-4.948,0-9.229-1.813-12.847-5.428c-3.615-3.613-5.424-7.898-5.424-12.847 v-36.547c0-4.948,1.809-9.231,5.424-12.847c3.617-3.617,7.898-5.426,12.847-5.426h143.325l-53.962-53.959 c-3.428-3.428-5.14-7.708-5.14-12.847c0-5.141,1.712-9.42,5.14-12.851l25.981-25.981c3.427-3.425,7.71-5.137,12.847-5.137 c5.145,0,9.419,1.711,12.852,5.137l103.35,103.356l25.978,25.981c3.432,3.427,5.144,7.707,5.144,12.847 C366.877,224.404,365.165,228.686,361.733,232.111z"/></symbol><symbol id="heart" viewBox="0 -21 448 448"><title>heart</title><path d="m224 406.902344c29.382812-16.214844 224-129.496094 224-282.902344 0-66.054688-54.199219-124-116-124-41.867188.0742188-80.460938 22.660156-101.03125 59.128906-1.539062 2.351563-4.160156 3.765625-6.96875 3.765625s-5.429688-1.414062-6.96875-3.765625c-20.570312-36.46875-59.164062-59.0546872-101.03125-59.128906-61.800781 0-116 57.945312-116 124 0 153.40625 194.617188 266.6875 224 282.902344zm0 0"/></symbol><symbol id="github" viewBox="0 0 24 24"><title>github</title><path d="m12 .5c-6.63 0-12 5.28-12 11.792 0 5.211 3.438 9.63 8.205 11.188.6.111.82-.254.82-.567 0-.28-.01-1.022-.015-2.005-3.338.711-4.042-1.582-4.042-1.582-.546-1.361-1.335-1.725-1.335-1.725-1.087-.731.084-.716.084-.716 1.205.082 1.838 1.215 1.838 1.215 1.07 1.803 2.809 1.282 3.495.981.108-.763.417-1.282.76-1.577-2.665-.295-5.466-1.309-5.466-5.827 0-1.287.465-2.339 1.235-3.164-.135-.298-.54-1.497.105-3.121 0 0 1.005-.316 3.3 1.209.96-.262 1.98-.392 3-.398 1.02.006 2.04.136 3 .398 2.28-1.525 3.285-1.209 3.285-1.209.645 1.624.24 2.823.12 3.121.765.825 1.23 1.877 1.23 3.164 0 4.53-2.805 5.527-5.475 5.817.42.354.81 1.077.81 2.182 0 1.578-.015 2.846-.015 3.229 0 .309.21.678.825.56 4.801-1.548 8.236-5.97 8.236-11.173 0-6.512-5.373-11.792-12-11.792z" fill="#212121"/></symbol><symbol id="facebook" viewBox="0 0 24 24"><title>facebook</title><path d="m15.997 3.985h2.191v-3.816c-.378-.052-1.678-.169-3.192-.169-3.159 0-5.323 1.987-5.323 5.639v3.361h-3.486v4.266h3.486v10.734h4.274v-10.733h3.345l.531-4.266h-3.877v-2.939c.001-1.233.333-2.077 2.051-2.077z"/></symbol><symbol id="label" viewBox="0 0 37.628 37.628"><title>label</title><path d="M36.895,23.758L25.092,35.562c-0.488,0.487-1.128,0.731-1.77,0.731c-0.211,0-0.419-0.037-0.625-0.089 c0.418-0.107,0.815-0.315,1.145-0.644l11.803-11.804c0.979-0.977,0.979-2.56,0-3.534L17.488,2.067 c-0.333-0.333-0.752-0.546-1.199-0.651l0.243-0.043c0.807-0.142,1.629,0.116,2.206,0.694l18.156,18.156 C37.872,21.199,37.872,22.782,36.895,23.758z M34.228,23.758L22.425,35.562c-0.488,0.487-1.128,0.731-1.77,0.731 c-0.64,0-1.279-0.244-1.768-0.731L0.732,17.405c-0.578-0.578-0.837-1.401-0.694-2.206L1.822,5.181 c0.184-1.031,0.992-1.839,2.023-2.023l10.019-1.784c0.807-0.142,1.629,0.116,2.206,0.694l18.156,18.156 C35.206,21.199,35.206,22.782,34.228,23.758z M9.454,7.193c-0.985-1-2.595-1.012-3.595-0.027s-1.011,2.595-0.026,3.595 c0.985,0.999,2.594,1.012,3.594,0.026C10.426,9.802,10.438,8.192,9.454,7.193z"/></symbol><symbol id="google-browser" viewBox="0 0 23.952 23.952"><title>google-browser</title><path style="fill:#030104;" d="M18.174,1.157h-2.116l0.709,0.576c0.282,0.234,0.547,0.524,0.802,0.871 c0.252,0.346,0.468,0.749,0.646,1.205c0.176,0.457,0.266,0.979,0.266,1.566c0,0.562-0.083,1.064-0.252,1.5 c-0.165,0.438-0.381,0.832-0.643,1.183S17.018,8.723,16.674,9l-1.06,0.811c-0.218,0.216-0.431,0.439-0.645,0.674 c-0.21,0.231-0.317,0.527-0.317,0.884c0,0.351,0.125,0.633,0.372,0.84c0.251,0.21,0.479,0.376,0.682,0.504l1.223,0.885 c0.337,0.29,0.653,0.582,0.957,0.878c0.302,0.295,0.574,0.614,0.815,0.957c0.236,0.345,0.427,0.723,0.561,1.136 c0.135,0.413,0.199,0.888,0.199,1.426c0,0.75-0.182,1.481-0.551,2.188c-0.368,0.709-0.912,1.346-1.638,1.909 c-0.724,0.564-1.621,1.015-2.691,1.353c-1.073,0.338-2.306,0.507-3.707,0.507c-1.232,0-2.302-0.125-3.207-0.378 c-0.908-0.252-1.666-0.587-2.271-1.006c-0.605-0.418-1.057-0.895-1.353-1.432c-0.295-0.537-0.44-1.1-0.44-1.691 c0-0.569,0.182-1.212,0.551-1.933c0.368-0.719,1.042-1.353,2.023-1.899c0.52-0.29,1.076-0.524,1.67-0.709 c0.592-0.183,1.176-0.324,1.758-0.427c0.582-0.101,1.133-0.173,1.655-0.217c0.52-0.042,0.971-0.075,1.343-0.097 c-0.231-0.287-0.448-0.592-0.648-0.909c-0.195-0.316-0.294-0.726-0.294-1.231c0-0.268,0.033-0.49,0.099-0.669 c0.065-0.181,0.137-0.362,0.221-0.543c-0.169,0.021-0.344,0.037-0.527,0.047c-0.186,0.011-0.368,0.018-0.543,0.018 c-0.906,0-1.704-0.141-2.398-0.429C7.822,10.164,7.228,9.79,6.743,9.33C6.26,8.868,5.895,8.34,5.655,7.743 C5.41,7.148,5.29,6.544,5.29,5.931c0-0.728,0.179-1.463,0.525-2.209c0.352-0.748,0.882-1.414,1.594-2.004 c0.978-0.75,1.993-1.224,3.051-1.421C11.515,0.1,12.499,0,13.415,0h6.935L18.174,1.157z M17.354,19.195 c0-0.389-0.064-0.744-0.196-1.069c-0.131-0.321-0.327-0.633-0.592-0.934c-0.265-0.301-0.639-0.619-1.121-0.955 c-0.483-0.337-1.03-0.719-1.646-1.149c-0.127-0.043-0.247-0.067-0.354-0.067H13.03c-0.086,0-0.248,0.007-0.489,0.016 c-0.241,0.011-0.53,0.035-0.868,0.071c-0.337,0.038-0.697,0.089-1.084,0.152c-0.384,0.065-0.752,0.148-1.104,0.256 c-0.197,0.064-0.452,0.163-0.771,0.296c-0.323,0.131-0.64,0.324-0.956,0.573c-0.317,0.249-0.59,0.568-0.817,0.95 c-0.233,0.383-0.346,0.845-0.346,1.389c0,0.562,0.134,1.072,0.405,1.531c0.271,0.457,0.668,0.86,1.185,1.213 c0.512,0.35,1.135,0.616,1.865,0.795c0.726,0.181,1.538,0.271,2.433,0.271c1.62,0,2.837-0.313,3.65-0.941 S17.354,20.166,17.354,19.195z M14.668,9.079c0.381-0.373,0.615-0.773,0.697-1.2c0.083-0.425,0.124-0.782,0.124-1.067 c0-0.564-0.086-1.179-0.255-1.846c-0.171-0.664-0.43-1.285-0.774-1.859c-0.347-0.576-0.777-1.059-1.289-1.453 c-0.521-0.397-1.115-0.592-1.797-0.592c-0.438,0-0.872,0.099-1.298,0.294C9.65,1.553,9.295,1.802,9.021,2.099 C8.731,2.43,8.539,2.793,8.435,3.185C8.335,3.581,8.284,3.986,8.284,4.4c0,0.521,0.083,1.105,0.244,1.748 c0.164,0.646,0.419,1.247,0.768,1.813c0.35,0.563,0.785,1.039,1.3,1.42c0.52,0.385,1.135,0.576,1.854,0.576 c0.423,0,0.834-0.078,1.232-0.24C14.079,9.557,14.41,9.343,14.668,9.079z"/></symbol><symbol id="magnifying-glass" viewBox="0 0 515.558 515.558"><title>magnifying-glass</title><path d="m378.344 332.78c25.37-34.645 40.545-77.2 40.545-123.333 0-115.484-93.961-209.445-209.445-209.445s-209.444 93.961-209.444 209.445 93.961 209.445 209.445 209.445c46.133 0 88.692-15.177 123.337-40.547l137.212 137.212 45.564-45.564c0-.001-137.214-137.213-137.214-137.213zm-168.899 21.667c-79.958 0-145-65.042-145-145s65.042-145 145-145 145 65.042 145 145-65.043 145-145 145z"/></symbol></svg>